# xmcd
#
# Track frame offsets: 
#        150
#        12598
#        26433
#        40418
#        55853
#        67622
#        81765
#        94552
#        109570
#        129174
#        142863
#        155238
#        166795
#        177340
#        190201
#        209068
#        220938
#        242611
#
# Disc length: 3433 seconds
#
# Revision: 0
# Processed by: cddbd v1.5.2PL0 Copyright (c) Steve Scherf et al.
# Submitted via: ExactAudioCopy v0.95a5
#
DISCID=ec0d6712
DTITLE=Various Artist - Kings of Country
DYEAR=1985
DGENRE=Country
TTITLE0=Johnny Cash - Folsom Prison Blues
TTITLE1=Johnny Cash - Don't Take Your Guns to Town
TTITLE2=Willie Nelson - My Heroes Have Always Been Cowboys
TTITLE3=Merle Haggard - Twinkle, Twinkle Lucky Star
TTITLE4=George Jones - She Thinks I Still Care
TTITLE5=George Jones - The Grand Tour
TTITLE6=Willie Nelson - Forgiving You Was Easy
TTITLE7=George Jones - I Always Get Lucky with You
TTITLE8=Willie Nelson - Georgia on My Mind
TTITLE9=Merle Haggard - Big City
TTITLE10=Johnny Cash - Understand Your Man
TTITLE11=Willie Nelson - On the Road Again
TTITLE12=Willie Nelson - Blue Eyes Crying in the Rain
TTITLE13=George Jones - Still Doing Time
TTITLE14=Johnny Cash - Sunday Morning Coming Down
TTITLE15=Johnny Cash - Flesh and Blood
TTITLE16=Willie Nelson and Merle Haggard - Pancho and Lefty
TTITLE17=George Jones - Who's Gonna Fill Their Shoes
EXTD=
EXTT0=
EXTT1=
EXTT2=
EXTT3=
EXTT4=
EXTT5=
EXTT6=
EXTT7=
EXTT8=
EXTT9=
EXTT10=
EXTT11=
EXTT12=
EXTT13=
EXTT14=
EXTT15=
EXTT16=
EXTT17=
PLAYORDER=
